<svg width="132" height="148" viewBox="0 0 132 148" fill="none" xmlns="http://www.w3.org/2000/svg">
<path fill="#3fbe05" d="M112.872 129.935C112.163 132.116 110.887 133.951 110.085 136.045C108.568 137.384 108.519 137.883 109.936 137.54C111.389 137.423 111.167 137.463 109.268 137.661C105.961 137.304 103.248 136.751 100.368 134.923C94.72 131.336 90.996 124.729 91.3266 117.984C91.3986 116.521 91.496 114.531 92.2573 113.207C93.38 111.26 95.0146 111.073 97.688 110.516C103.197 109.368 108.792 109.447 114.34 110.204C115.019 116.831 114.952 123.54 112.872 129.935ZM30.1 116.593C24.284 115.764 19.6133 110.655 17.472 105.457C16.1787 102.315 15.6666 99.0081 16.156 95.6201C16.22 94.8855 16.368 94.168 16.604 93.4693C16.9413 92.9 17.0173 92.5254 16.8373 92.3374C17.2267 92.3694 17.6147 92.4281 17.9987 92.5201C24.936 93.5961 30.428 98.0961 34.3653 103.693C34.848 104.377 35.956 104.444 37.3627 104.109C36.9827 109.22 35.8293 117.409 30.1 116.593ZM15.5493 92.336C15.5627 92.3347 15.5773 92.3373 15.5907 92.336C15.5507 92.348 15.5173 92.3534 15.4733 92.3654C13.5587 92.3134 13.5827 92.3053 15.5493 92.336ZM128.884 26.308C124.272 22.9773 116.627 21.8587 111.267 20.0561C104.701 17.8481 98.136 15.6388 91.5693 13.4308C78.4387 9.01346 65.3067 4.59734 52.176 0.180005C49.0827 -0.859995 37.704 4.96809 37.7 8.53743C37.684 24.0348 37.6666 39.5307 37.6506 55.0281C37.6386 64.9867 37.9427 75.0374 37.932 85.0561C34.5413 83.4241 30.8027 82.5481 26.8453 82.7548C18.064 83.2148 7.48133 88.996 3.10667 96.7747C-1.10533 104.264 0.741341 114.283 6.51334 120.425C12.1253 126.397 19.7373 127.341 27.2587 124.857C35.36 122.18 43.6853 116.833 48.3733 109.557C54.256 100.425 52.7027 88.6401 52.7147 78.3001C52.724 68.9387 52.7347 59.5787 52.7453 50.2187C60.1413 53.18 67.8507 55.5401 75.2293 58.2094C78.492 59.3894 113.72 71.4401 113.433 72.4107C113.112 73.5001 114.056 73.6587 115.325 73.4507C114.967 82.4361 114.607 91.4214 114.247 100.407C103.004 101.311 91.8013 105.137 83.3293 112.385C72.9746 121.243 74.4573 136.719 85.908 144.029C96.9027 151.048 110.525 144.737 119.115 136.645C129.612 126.757 130.677 112.905 129.091 99.4574C129.611 86.4347 130.133 73.4108 130.653 60.3868C130.931 53.4721 131.207 46.5587 131.483 39.6441C131.66 35.2387 132.996 29.2773 128.884 26.308Z"/>
</svg>
